<svg class="rich-terminal" viewBox="0 0 1336 879.5999999999999" xmlns="http://www.w3.org/2000/svg">
    <!-- Generated with Rich https://www.textualize.io -->
    <style>

    @font-face {
        font-family: "Fira Code";
        src: local("FiraCode-Regular"),
                url("https://cdnjs.cloudflare.com/ajax/libs/firacode/6.2.0/woff2/FiraCode-Regular.woff2") format("woff2"),
                url("https://cdnjs.cloudflare.com/ajax/libs/firacode/6.2.0/woff/FiraCode-Regular.woff") format("woff");
        font-style: normal;
        font-weight: 400;
    }
    @font-face {
        font-family: "Fira Code";
        src: local("FiraCode-Bold"),
                url("https://cdnjs.cloudflare.com/ajax/libs/firacode/6.2.0/woff2/FiraCode-Bold.woff2") format("woff2"),
                url("https://cdnjs.cloudflare.com/ajax/libs/firacode/6.2.0/woff/FiraCode-Bold.woff") format("woff");
        font-style: bold;
        font-weight: 700;
    }

    .terminal-3828423880-matrix {
        font-family: Fira Code, monospace;
        font-size: 20px;
        line-height: 24.4px;
        font-variant-east-asian: full-width;
    }

    .terminal-3828423880-title {
        font-size: 18px;
        font-weight: bold;
        font-family: arial;
    }

    .terminal-3828423880-r1 { fill: #c5c8c6 }
.terminal-3828423880-r2 { fill: #e0e0e0 }
.terminal-3828423880-r3 { fill: #a0a3a6 }
.terminal-3828423880-r4 { fill: #57a5e2 }
.terminal-3828423880-r5 { fill: #0178d4;text-decoration: underline; }
.terminal-3828423880-r6 { fill: #003054 }
.terminal-3828423880-r7 { fill: #121212 }
.terminal-3828423880-r8 { fill: #e0e0e0;font-weight: bold }
.terminal-3828423880-r9 { fill: #e0e0e0;font-style: italic; }
.terminal-3828423880-r10 { fill: #e0e0e0;text-decoration: underline; }
.terminal-3828423880-r11 { fill: #000000 }
.terminal-3828423880-r12 { fill: #0178d4 }
.terminal-3828423880-r13 { fill: #797979 }
.terminal-3828423880-r14 { fill: #ffa62b;font-weight: bold }
.terminal-3828423880-r15 { fill: #495259 }
    </style>

    <defs>
    <clipPath id="terminal-3828423880-clip-terminal">
      <rect x="0" y="0" width="1316.6" height="828.5999999999999" />
    </clipPath>
    <clipPath id="terminal-3828423880-line-0">
    <rect x="0" y="1.5" width="1317.6" height="24.65"/>
            </clipPath>
<clipPath id="terminal-3828423880-line-1">
    <rect x="0" y="25.9" width="1317.6" height="24.65"/>
            </clipPath>
<clipPath id="terminal-3828423880-line-2">
    <rect x="0" y="50.3" width="1317.6" height="24.65"/>
            </clipPath>
<clipPath id="terminal-3828423880-line-3">
    <rect x="0" y="74.7" width="1317.6" height="24.65"/>
            </clipPath>
<clipPath id="terminal-3828423880-line-4">
    <rect x="0" y="99.1" width="1317.6" height="24.65"/>
            </clipPath>
<clipPath id="terminal-3828423880-line-5">
    <rect x="0" y="123.5" width="1317.6" height="24.65"/>
            </clipPath>
<clipPath id="terminal-3828423880-line-6">
    <rect x="0" y="147.9" width="1317.6" height="24.65"/>
            </clipPath>
<clipPath id="terminal-3828423880-line-7">
    <rect x="0" y="172.3" width="1317.6" height="24.65"/>
            </clipPath>
<clipPath id="terminal-3828423880-line-8">
    <rect x="0" y="196.7" width="1317.6" height="24.65"/>
            </clipPath>
<clipPath id="terminal-3828423880-line-9">
    <rect x="0" y="221.1" width="1317.6" height="24.65"/>
            </clipPath>
<clipPath id="terminal-3828423880-line-10">
    <rect x="0" y="245.5" width="1317.6" height="24.65"/>
            </clipPath>
<clipPath id="terminal-3828423880-line-11">
    <rect x="0" y="269.9" width="1317.6" height="24.65"/>
            </clipPath>
<clipPath id="terminal-3828423880-line-12">
    <rect x="0" y="294.3" width="1317.6" height="24.65"/>
            </clipPath>
<clipPath id="terminal-3828423880-line-13">
    <rect x="0" y="318.7" width="1317.6" height="24.65"/>
            </clipPath>
<clipPath id="terminal-3828423880-line-14">
    <rect x="0" y="343.1" width="1317.6" height="24.65"/>
            </clipPath>
<clipPath id="terminal-3828423880-line-15">
    <rect x="0" y="367.5" width="1317.6" height="24.65"/>
            </clipPath>
<clipPath id="terminal-3828423880-line-16">
    <rect x="0" y="391.9" width="1317.6" height="24.65"/>
            </clipPath>
<clipPath id="terminal-3828423880-line-17">
    <rect x="0" y="416.3" width="1317.6" height="24.65"/>
            </clipPath>
<clipPath id="terminal-3828423880-line-18">
    <rect x="0" y="440.7" width="1317.6" height="24.65"/>
            </clipPath>
<clipPath id="terminal-3828423880-line-19">
    <rect x="0" y="465.1" width="1317.6" height="24.65"/>
            </clipPath>
<clipPath id="terminal-3828423880-line-20">
    <rect x="0" y="489.5" width="1317.6" height="24.65"/>
            </clipPath>
<clipPath id="terminal-3828423880-line-21">
    <rect x="0" y="513.9" width="1317.6" height="24.65"/>
            </clipPath>
<clipPath id="terminal-3828423880-line-22">
    <rect x="0" y="538.3" width="1317.6" height="24.65"/>
            </clipPath>
<clipPath id="terminal-3828423880-line-23">
    <rect x="0" y="562.7" width="1317.6" height="24.65"/>
            </clipPath>
<clipPath id="terminal-3828423880-line-24">
    <rect x="0" y="587.1" width="1317.6" height="24.65"/>
            </clipPath>
<clipPath id="terminal-3828423880-line-25">
    <rect x="0" y="611.5" width="1317.6" height="24.65"/>
            </clipPath>
<clipPath id="terminal-3828423880-line-26">
    <rect x="0" y="635.9" width="1317.6" height="24.65"/>
            </clipPath>
<clipPath id="terminal-3828423880-line-27">
    <rect x="0" y="660.3" width="1317.6" height="24.65"/>
            </clipPath>
<clipPath id="terminal-3828423880-line-28">
    <rect x="0" y="684.7" width="1317.6" height="24.65"/>
            </clipPath>
<clipPath id="terminal-3828423880-line-29">
    <rect x="0" y="709.1" width="1317.6" height="24.65"/>
            </clipPath>
<clipPath id="terminal-3828423880-line-30">
    <rect x="0" y="733.5" width="1317.6" height="24.65"/>
            </clipPath>
<clipPath id="terminal-3828423880-line-31">
    <rect x="0" y="757.9" width="1317.6" height="24.65"/>
            </clipPath>
<clipPath id="terminal-3828423880-line-32">
    <rect x="0" y="782.3" width="1317.6" height="24.65"/>
            </clipPath>
    </defs>

    <rect fill="#292929" stroke="rgba(255,255,255,0.35)" stroke-width="1" x="1" y="1" width="1334" height="877.6" rx="8"/><text class="terminal-3828423880-title" fill="#c5c8c6" text-anchor="middle" x="667" y="27">ReviewPilot</text>
            <g transform="translate(26,22)">
            <circle cx="0" cy="0" r="7" fill="#ff5f57"/>
            <circle cx="22" cy="0" r="7" fill="#febc2e"/>
            <circle cx="44" cy="0" r="7" fill="#28c840"/>
            </g>
        
    <g transform="translate(9, 41)" clip-path="url(#terminal-3828423880-clip-terminal)">
    <rect fill="#242f38" x="0" y="1.5" width="12.2" height="24.65" shape-rendering="crispEdges"/><rect fill="#242f38" x="12.2" y="1.5" width="12.2" height="24.65" shape-rendering="crispEdges"/><rect fill="#242f38" x="24.4" y="1.5" width="61" height="24.65" shape-rendering="crispEdges"/><rect fill="#242f38" x="85.4" y="1.5" width="12.2" height="24.65" shape-rendering="crispEdges"/><rect fill="#242f38" x="97.6" y="1.5" width="353.8" height="24.65" shape-rendering="crispEdges"/><rect fill="#242f38" x="451.4" y="1.5" width="134.2" height="24.65" shape-rendering="crispEdges"/><rect fill="#242f38" x="585.6" y="1.5" width="36.6" height="24.65" shape-rendering="crispEdges"/><rect fill="#242f38" x="622.2" y="1.5" width="219.6" height="24.65" shape-rendering="crispEdges"/><rect fill="#242f38" x="841.8" y="1.5" width="353.8" height="24.65" shape-rendering="crispEdges"/><rect fill="#242f38" x="1195.6" y="1.5" width="12.2" height="24.65" shape-rendering="crispEdges"/><rect fill="#242f38" x="1207.8" y="1.5" width="0" height="24.65" shape-rendering="crispEdges"/><rect fill="#242f38" x="1207.8" y="1.5" width="97.6" height="24.65" shape-rendering="crispEdges"/><rect fill="#242f38" x="1305.4" y="1.5" width="12.2" height="24.65" shape-rendering="crispEdges"/><rect fill="#121212" x="0" y="25.9" width="12.2" height="24.65" shape-rendering="crispEdges"/><rect fill="#121212" x="12.2" y="25.9" width="24.4" height="24.65" shape-rendering="crispEdges"/><rect fill="#121212" x="36.6" y="25.9" width="24.4" height="24.65" shape-rendering="crispEdges"/><rect fill="#121212" x="61" y="25.9" width="207.4" height="24.65" shape-rendering="crispEdges"/><rect fill="#121212" x="268.4" y="25.9" width="988.2" height="24.65" shape-rendering="crispEdges"/><rect fill="#121212" x="1256.6" y="25.9" width="24.4" height="24.65" shape-rendering="crispEdges"/><rect fill="#000000" x="1281" y="25.9" width="24.4" height="24.65" shape-rendering="crispEdges"/><rect fill="#121212" x="1305.4" y="25.9" width="12.2" height="24.65" shape-rendering="crispEdges"/><rect fill="#121212" x="0" y="50.3" width="12.2" height="24.65" shape-rendering="crispEdges"/><rect fill="#121212" x="12.2" y="50.3" width="24.4" height="24.65" shape-rendering="crispEdges"/><rect fill="#121212" x="36.6" y="50.3" width="1220" height="24.65" shape-rendering="crispEdges"/><rect fill="#121212" x="1256.6" y="50.3" width="24.4" height="24.65" shape-rendering="crispEdges"/><rect fill="#000000" x="1281" y="50.3" width="24.4" height="24.65" shape-rendering="crispEdges"/><rect fill="#121212" x="1305.4" y="50.3" width="12.2" height="24.65" shape-rendering="crispEdges"/><rect fill="#121212" x="0" y="74.7" width="12.2" height="24.65" shape-rendering="crispEdges"/><rect fill="#121212" x="12.2" y="74.7" width="24.4" height="24.65" shape-rendering="crispEdges"/><rect fill="#121212" x="36.6" y="74.7" width="1220" height="24.65" shape-rendering="crispEdges"/><rect fill="#121212" x="1256.6" y="74.7" width="24.4" height="24.65" shape-rendering="crispEdges"/><rect fill="#000000" x="1281" y="74.7" width="24.4" height="24.65" shape-rendering="crispEdges"/><rect fill="#121212" x="1305.4" y="74.7" width="12.2" height="24.65" shape-rendering="crispEdges"/><rect fill="#121212" x="0" y="99.1" width="12.2" height="24.65" shape-rendering="crispEdges"/><rect fill="#121212" x="12.2" y="99.1" width="24.4" height="24.65" shape-rendering="crispEdges"/><rect fill="#121212" x="36.6" y="99.1" width="146.4" height="24.65" shape-rendering="crispEdges"/><rect fill="#121212" x="183" y="99.1" width="1073.6" height="24.65" shape-rendering="crispEdges"/><rect fill="#121212" x="1256.6" y="99.1" width="24.4" height="24.65" shape-rendering="crispEdges"/><rect fill="#000000" x="1281" y="99.1" width="24.4" height="24.65" shape-rendering="crispEdges"/><rect fill="#121212" x="1305.4" y="99.1" width="12.2" height="24.65" shape-rendering="crispEdges"/><rect fill="#121212" x="0" y="123.5" width="12.2" height="24.65" shape-rendering="crispEdges"/><rect fill="#121212" x="12.2" y="123.5" width="24.4" height="24.65" shape-rendering="crispEdges"/><rect fill="#121212" x="36.6" y="123.5" width="1220" height="24.65" shape-rendering="crispEdges"/><rect fill="#121212" x="1256.6" y="123.5" width="24.4" height="24.65" shape-rendering="crispEdges"/><rect fill="#000000" x="1281" y="123.5" width="24.4" height="24.65" shape-rendering="crispEdges"/><rect fill="#121212" x="1305.4" y="123.5" width="12.2" height="24.65" shape-rendering="crispEdges"/><rect fill="#121212" x="0" y="147.9" width="12.2" height="24.65" shape-rendering="crispEdges"/><rect fill="#121212" x="12.2" y="147.9" width="24.4" height="24.65" shape-rendering="crispEdges"/><rect fill="#121212" x="36.6" y="147.9" width="24.4" height="24.65" shape-rendering="crispEdges"/><rect fill="#121212" x="61" y="147.9" width="329.4" height="24.65" shape-rendering="crispEdges"/><rect fill="#121212" x="390.4" y="147.9" width="866.2" height="24.65" shape-rendering="crispEdges"/><rect fill="#121212" x="1256.6" y="147.9" width="24.4" height="24.65" shape-rendering="crispEdges"/><rect fill="#000000" x="1281" y="147.9" width="24.4" height="24.65" shape-rendering="crispEdges"/><rect fill="#121212" x="1305.4" y="147.9" width="12.2" height="24.65" shape-rendering="crispEdges"/><rect fill="#121212" x="0" y="172.3" width="12.2" height="24.65" shape-rendering="crispEdges"/><rect fill="#121212" x="12.2" y="172.3" width="24.4" height="24.65" shape-rendering="crispEdges"/><rect fill="#121212" x="36.6" y="172.3" width="24.4" height="24.65" shape-rendering="crispEdges"/><rect fill="#121212" x="61" y="172.3" width="329.4" height="24.65" shape-rendering="crispEdges"/><rect fill="#121212" x="390.4" y="172.3" width="866.2" height="24.65" shape-rendering="crispEdges"/><rect fill="#121212" x="1256.6" y="172.3" width="24.4" height="24.65" shape-rendering="crispEdges"/><rect fill="#000000" x="1281" y="172.3" width="24.4" height="24.65" shape-rendering="crispEdges"/><rect fill="#121212" x="1305.4" y="172.3" width="12.2" height="24.65" shape-rendering="crispEdges"/><rect fill="#121212" x="0" y="196.7" width="12.2" height="24.65" shape-rendering="crispEdges"/><rect fill="#121212" x="12.2" y="196.7" width="24.4" height="24.65" shape-rendering="crispEdges"/><rect fill="#121212" x="36.6" y="196.7" width="24.4" height="24.65" shape-rendering="crispEdges"/><rect fill="#121212" x="61" y="196.7" width="207.4" height="24.65" shape-rendering="crispEdges"/><rect fill="#121212" x="268.4" y="196.7" width="988.2" height="24.65" shape-rendering="crispEdges"/><rect fill="#121212" x="1256.6" y="196.7" width="24.4" height="24.65" shape-rendering="crispEdges"/><rect fill="#000000" x="1281" y="196.7" width="24.4" height="24.65" shape-rendering="crispEdges"/><rect fill="#121212" x="1305.4" y="196.7" width="12.2" height="24.65" shape-rendering="crispEdges"/><rect fill="#121212" x="0" y="221.1" width="12.2" height="24.65" shape-rendering="crispEdges"/><rect fill="#121212" x="12.2" y="221.1" width="24.4" height="24.65" shape-rendering="crispEdges"/><rect fill="#121212" x="36.6" y="221.1" width="1220" height="24.65" shape-rendering="crispEdges"/><rect fill="#121212" x="1256.6" y="221.1" width="24.4" height="24.65" shape-rendering="crispEdges"/><rect fill="#000000" x="1281" y="221.1" width="24.4" height="24.65" shape-rendering="crispEdges"/><rect fill="#121212" x="1305.4" y="221.1" width="12.2" height="24.65" shape-rendering="crispEdges"/><rect fill="#121212" x="0" y="245.5" width="12.2" height="24.65" shape-rendering="crispEdges"/><rect fill="#121212" x="12.2" y="245.5" width="24.4" height="24.65" shape-rendering="crispEdges"/><rect fill="#121212" x="36.6" y="245.5" width="1220" height="24.65" shape-rendering="crispEdges"/><rect fill="#121212" x="1256.6" y="245.5" width="24.4" height="24.65" shape-rendering="crispEdges"/><rect fill="#000000" x="1281" y="245.5" width="24.4" height="24.65" shape-rendering="crispEdges"/><rect fill="#121212" x="1305.4" y="245.5" width="12.2" height="24.65" shape-rendering="crispEdges"/><rect fill="#121212" x="0" y="269.9" width="12.2" height="24.65" shape-rendering="crispEdges"/><rect fill="#121212" x="12.2" y="269.9" width="24.4" height="24.65" shape-rendering="crispEdges"/><rect fill="#121212" x="36.6" y="269.9" width="48.8" height="24.65" shape-rendering="crispEdges"/><rect fill="#121212" x="85.4" y="269.9" width="1171.2" height="24.65" shape-rendering="crispEdges"/><rect fill="#121212" x="1256.6" y="269.9" width="24.4" height="24.65" shape-rendering="crispEdges"/><rect fill="#003054" x="1281" y="269.9" width="24.4" height="24.65" shape-rendering="crispEdges"/><rect fill="#121212" x="1305.4" y="269.9" width="12.2" height="24.65" shape-rendering="crispEdges"/><rect fill="#121212" x="0" y="294.3" width="12.2" height="24.65" shape-rendering="crispEdges"/><rect fill="#121212" x="12.2" y="294.3" width="24.4" height="24.65" shape-rendering="crispEdges"/><rect fill="#121212" x="36.6" y="294.3" width="1220" height="24.65" shape-rendering="crispEdges"/><rect fill="#121212" x="1256.6" y="294.3" width="24.4" height="24.65" shape-rendering="crispEdges"/><rect fill="#003054" x="1281" y="294.3" width="24.4" height="24.65" shape-rendering="crispEdges"/><rect fill="#121212" x="1305.4" y="294.3" width="12.2" height="24.65" shape-rendering="crispEdges"/><rect fill="#121212" x="0" y="318.7" width="12.2" height="24.65" shape-rendering="crispEdges"/><rect fill="#121212" x="12.2" y="318.7" width="24.4" height="24.65" shape-rendering="crispEdges"/><rect fill="#121212" x="36.6" y="318.7" width="24.4" height="24.65" shape-rendering="crispEdges"/><rect fill="#121212" x="61" y="318.7" width="646.6" height="24.65" shape-rendering="crispEdges"/><rect fill="#121212" x="707.6" y="318.7" width="549" height="24.65" shape-rendering="crispEdges"/><rect fill="#121212" x="1256.6" y="318.7" width="24.4" height="24.65" shape-rendering="crispEdges"/><rect fill="#003054" x="1281" y="318.7" width="24.4" height="24.65" shape-rendering="crispEdges"/><rect fill="#121212" x="1305.4" y="318.7" width="12.2" height="24.65" shape-rendering="crispEdges"/><rect fill="#121212" x="0" y="343.1" width="12.2" height="24.65" shape-rendering="crispEdges"/><rect fill="#121212" x="12.2" y="343.1" width="24.4" height="24.65" shape-rendering="crispEdges"/><rect fill="#121212" x="36.6" y="343.1" width="1220" height="24.65" shape-rendering="crispEdges"/><rect fill="#121212" x="1256.6" y="343.1" width="24.4" height="24.65" shape-rendering="crispEdges"/><rect fill="#003054" x="1281" y="343.1" width="24.4" height="24.65" shape-rendering="crispEdges"/><rect fill="#121212" x="1305.4" y="343.1" width="12.2" height="24.65" shape-rendering="crispEdges"/><rect fill="#121212" x="0" y="367.5" width="12.2" height="24.65" shape-rendering="crispEdges"/><rect fill="#121212" x="12.2" y="367.5" width="1268.8" height="24.65" shape-rendering="crispEdges"/><rect fill="#003054" x="1281" y="367.5" width="24.4" height="24.65" shape-rendering="crispEdges"/><rect fill="#121212" x="1305.4" y="367.5" width="12.2" height="24.65" shape-rendering="crispEdges"/><rect fill="#121212" x="0" y="391.9" width="12.2" height="24.65" shape-rendering="crispEdges"/><rect fill="#121212" x="12.2" y="391.9" width="24.4" height="24.65" shape-rendering="crispEdges"/><rect fill="#121212" x="36.6" y="391.9" width="24.4" height="24.65" shape-rendering="crispEdges"/><rect fill="#121212" x="61" y="391.9" width="1195.6" height="24.65" shape-rendering="crispEdges"/><rect fill="#121212" x="1256.6" y="391.9" width="24.4" height="24.65" shape-rendering="crispEdges"/><rect fill="#003054" x="1281" y="391.9" width="24.4" height="24.65" shape-rendering="crispEdges"/><rect fill="#121212" x="1305.4" y="391.9" width="12.2" height="24.65" shape-rendering="crispEdges"/><rect fill="#121212" x="0" y="416.3" width="12.2" height="24.65" shape-rendering="crispEdges"/><rect fill="#121212" x="12.2" y="416.3" width="24.4" height="24.65" shape-rendering="crispEdges"/><rect fill="#121212" x="36.6" y="416.3" width="1220" height="24.65" shape-rendering="crispEdges"/><rect fill="#121212" x="1256.6" y="416.3" width="24.4" height="24.65" shape-rendering="crispEdges"/><rect fill="#003054" x="1281" y="416.3" width="24.4" height="24.65" shape-rendering="crispEdges"/><rect fill="#121212" x="1305.4" y="416.3" width="12.2" height="24.65" shape-rendering="crispEdges"/><rect fill="#121212" x="0" y="440.7" width="12.2" height="24.65" shape-rendering="crispEdges"/><rect fill="#121212" x="12.2" y="440.7" width="24.4" height="24.65" shape-rendering="crispEdges"/><rect fill="#121212" x="36.6" y="440.7" width="280.6" height="24.65" shape-rendering="crispEdges"/><rect fill="#121212" x="317.2" y="440.7" width="939.4" height="24.65" shape-rendering="crispEdges"/><rect fill="#121212" x="1256.6" y="440.7" width="24.4" height="24.65" shape-rendering="crispEdges"/><rect fill="#003054" x="1281" y="440.7" width="24.4" height="24.65" shape-rendering="crispEdges"/><rect fill="#121212" x="1305.4" y="440.7" width="12.2" height="24.65" shape-rendering="crispEdges"/><rect fill="#121212" x="0" y="465.1" width="12.2" height="24.65" shape-rendering="crispEdges"/><rect fill="#121212" x="12.2" y="465.1" width="24.4" height="24.65" shape-rendering="crispEdges"/><rect fill="#121212" x="36.6" y="465.1" width="1220" height="24.65" shape-rendering="crispEdges"/><rect fill="#121212" x="1256.6" y="465.1" width="24.4" height="24.65" shape-rendering="crispEdges"/><rect fill="#003054" x="1281" y="465.1" width="24.4" height="24.65" shape-rendering="crispEdges"/><rect fill="#121212" x="1305.4" y="465.1" width="12.2" height="24.65" shape-rendering="crispEdges"/><rect fill="#121212" x="0" y="489.5" width="12.2" height="24.65" shape-rendering="crispEdges"/><rect fill="#121212" x="12.2" y="489.5" width="1268.8" height="24.65" shape-rendering="crispEdges"/><rect fill="#003054" x="1281" y="489.5" width="24.4" height="24.65" shape-rendering="crispEdges"/><rect fill="#121212" x="1305.4" y="489.5" width="12.2" height="24.65" shape-rendering="crispEdges"/><rect fill="#121212" x="0" y="513.9" width="12.2" height="24.65" shape-rendering="crispEdges"/><rect fill="#121212" x="12.2" y="513.9" width="24.4" height="24.65" shape-rendering="crispEdges"/><rect fill="#121212" x="36.6" y="513.9" width="134.2" height="24.65" shape-rendering="crispEdges"/><rect fill="#121212" x="170.8" y="513.9" width="1085.8" height="24.65" shape-rendering="crispEdges"/><rect fill="#121212" x="1256.6" y="513.9" width="24.4" height="24.65" shape-rendering="crispEdges"/><rect fill="#003054" x="1281" y="513.9" width="24.4" height="24.65" shape-rendering="crispEdges"/><rect fill="#121212" x="1305.4" y="513.9" width="12.2" height="24.65" shape-rendering="crispEdges"/><rect fill="#121212" x="0" y="538.3" width="12.2" height="24.65" shape-rendering="crispEdges"/><rect fill="#121212" x="12.2" y="538.3" width="24.4" height="24.65" shape-rendering="crispEdges"/><rect fill="#121212" x="36.6" y="538.3" width="1220" height="24.65" shape-rendering="crispEdges"/><rect fill="#121212" x="1256.6" y="538.3" width="24.4" height="24.65" shape-rendering="crispEdges"/><rect fill="#003054" x="1281" y="538.3" width="24.4" height="24.65" shape-rendering="crispEdges"/><rect fill="#121212" x="1305.4" y="538.3" width="12.2" height="24.65" shape-rendering="crispEdges"/><rect fill="#121212" x="0" y="562.7" width="12.2" height="24.65" shape-rendering="crispEdges"/><rect fill="#121212" x="12.2" y="562.7" width="24.4" height="24.65" shape-rendering="crispEdges"/><rect fill="#121212" x="36.6" y="562.7" width="85.4" height="24.65" shape-rendering="crispEdges"/><rect fill="#121212" x="122" y="562.7" width="1134.6" height="24.65" shape-rendering="crispEdges"/><rect fill="#121212" x="1256.6" y="562.7" width="24.4" height="24.65" shape-rendering="crispEdges"/><rect fill="#003054" x="1281" y="562.7" width="24.4" height="24.65" shape-rendering="crispEdges"/><rect fill="#121212" x="1305.4" y="562.7" width="12.2" height="24.65" shape-rendering="crispEdges"/><rect fill="#121212" x="0" y="587.1" width="12.2" height="24.65" shape-rendering="crispEdges"/><rect fill="#121212" x="12.2" y="587.1" width="24.4" height="24.65" shape-rendering="crispEdges"/><rect fill="#121212" x="36.6" y="587.1" width="1220" height="24.65" shape-rendering="crispEdges"/><rect fill="#121212" x="1256.6" y="587.1" width="24.4" height="24.65" shape-rendering="crispEdges"/><rect fill="#003054" x="1281" y="587.1" width="24.4" height="24.65" shape-rendering="crispEdges"/><rect fill="#121212" x="1305.4" y="587.1" width="12.2" height="24.65" shape-rendering="crispEdges"/><rect fill="#121212" x="0" y="611.5" width="12.2" height="24.65" shape-rendering="crispEdges"/><rect fill="#121212" x="12.2" y="611.5" width="1268.8" height="24.65" shape-rendering="crispEdges"/><rect fill="#003054" x="1281" y="611.5" width="24.4" height="24.65" shape-rendering="crispEdges"/><rect fill="#121212" x="1305.4" y="611.5" width="12.2" height="24.65" shape-rendering="crispEdges"/><rect fill="#121212" x="0" y="635.9" width="12.2" height="24.65" shape-rendering="crispEdges"/><rect fill="#121212" x="12.2" y="635.9" width="24.4" height="24.65" shape-rendering="crispEdges"/><rect fill="#121212" x="36.6" y="635.9" width="134.2" height="24.65" shape-rendering="crispEdges"/><rect fill="#121212" x="170.8" y="635.9" width="1085.8" height="24.65" shape-rendering="crispEdges"/><rect fill="#121212" x="1256.6" y="635.9" width="24.4" height="24.65" shape-rendering="crispEdges"/><rect fill="#003054" x="1281" y="635.9" width="24.4" height="24.65" shape-rendering="crispEdges"/><rect fill="#121212" x="1305.4" y="635.9" width="12.2" height="24.65" shape-rendering="crispEdges"/><rect fill="#121212" x="0" y="660.3" width="12.2" height="24.65" shape-rendering="crispEdges"/><rect fill="#121212" x="12.2" y="660.3" width="24.4" height="24.65" shape-rendering="crispEdges"/><rect fill="#121212" x="36.6" y="660.3" width="1220" height="24.65" shape-rendering="crispEdges"/><rect fill="#121212" x="1256.6" y="660.3" width="24.4" height="24.65" shape-rendering="crispEdges"/><rect fill="#003054" x="1281" y="660.3" width="24.4" height="24.65" shape-rendering="crispEdges"/><rect fill="#121212" x="1305.4" y="660.3" width="12.2" height="24.65" shape-rendering="crispEdges"/><rect fill="#121212" x="0" y="684.7" width="12.2" height="24.65" shape-rendering="crispEdges"/><rect fill="#121212" x="12.2" y="684.7" width="24.4" height="24.65" shape-rendering="crispEdges"/><rect fill="#121212" x="36.6" y="684.7" width="61" height="24.65" shape-rendering="crispEdges"/><rect fill="#121212" x="97.6" y="684.7" width="134.2" height="24.65" shape-rendering="crispEdges"/><rect fill="#121212" x="231.8" y="684.7" width="207.4" height="24.65" shape-rendering="crispEdges"/><rect fill="#121212" x="439.2" y="684.7" width="85.4" height="24.65" shape-rendering="crispEdges"/><rect fill="#121212" x="524.6" y="684.7" width="36.6" height="24.65" shape-rendering="crispEdges"/><rect fill="#121212" x="561.2" y="684.7" width="73.2" height="24.65" shape-rendering="crispEdges"/><rect fill="#121212" x="634.4" y="684.7" width="36.6" height="24.65" shape-rendering="crispEdges"/><rect fill="#121212" x="671" y="684.7" width="73.2" height="24.65" shape-rendering="crispEdges"/><rect fill="#121212" x="744.2" y="684.7" width="512.4" height="24.65" shape-rendering="crispEdges"/><rect fill="#121212" x="1256.6" y="684.7" width="24.4" height="24.65" shape-rendering="crispEdges"/><rect fill="#003054" x="1281" y="684.7" width="24.4" height="24.65" shape-rendering="crispEdges"/><rect fill="#121212" x="1305.4" y="684.7" width="12.2" height="24.65" shape-rendering="crispEdges"/><rect fill="#121212" x="0" y="709.1" width="12.2" height="24.65" shape-rendering="crispEdges"/><rect fill="#121212" x="12.2" y="709.1" width="24.4" height="24.65" shape-rendering="crispEdges"/><rect fill="#121212" x="36.6" y="709.1" width="524.6" height="24.65" shape-rendering="crispEdges"/><rect fill="#121212" x="561.2" y="709.1" width="695.4" height="24.65" shape-rendering="crispEdges"/><rect fill="#121212" x="1256.6" y="709.1" width="24.4" height="24.65" shape-rendering="crispEdges"/><rect fill="#003054" x="1281" y="709.1" width="24.4" height="24.65" shape-rendering="crispEdges"/><rect fill="#121212" x="1305.4" y="709.1" width="12.2" height="24.65" shape-rendering="crispEdges"/><rect fill="#121212" x="0" y="733.5" width="12.2" height="24.65" shape-rendering="crispEdges"/><rect fill="#121212" x="12.2" y="733.5" width="24.4" height="24.65" shape-rendering="crispEdges"/><rect fill="#121212" x="36.6" y="733.5" width="1220" height="24.65" shape-rendering="crispEdges"/><rect fill="#121212" x="1256.6" y="733.5" width="24.4" height="24.65" shape-rendering="crispEdges"/><rect fill="#003054" x="1281" y="733.5" width="24.4" height="24.65" shape-rendering="crispEdges"/><rect fill="#121212" x="1305.4" y="733.5" width="12.2" height="24.65" shape-rendering="crispEdges"/><rect fill="#0178d4" x="0" y="757.9" width="12.2" height="24.65" shape-rendering="crispEdges"/><rect fill="#272727" x="12.2" y="757.9" width="1293.2" height="24.65" shape-rendering="crispEdges"/><rect fill="#121212" x="1305.4" y="757.9" width="12.2" height="24.65" shape-rendering="crispEdges"/><rect fill="#0178d4" x="0" y="782.3" width="12.2" height="24.65" shape-rendering="crispEdges"/><rect fill="#272727" x="12.2" y="782.3" width="24.4" height="24.65" shape-rendering="crispEdges"/><rect fill="#e0e0e0" x="36.6" y="782.3" width="24.4" height="24.65" shape-rendering="crispEdges"/><rect fill="#272727" x="61" y="782.3" width="244" height="24.65" shape-rendering="crispEdges"/><rect fill="#272727" x="305" y="782.3" width="976" height="24.65" shape-rendering="crispEdges"/><rect fill="#272727" x="1281" y="782.3" width="24.4" height="24.65" shape-rendering="crispEdges"/><rect fill="#121212" x="1305.4" y="782.3" width="12.2" height="24.65" shape-rendering="crispEdges"/><rect fill="#242f38" x="0" y="806.7" width="61" height="24.65" shape-rendering="crispEdges"/><rect fill="#242f38" x="61" y="806.7" width="61" height="24.65" shape-rendering="crispEdges"/><rect fill="#242f38" x="122" y="806.7" width="1049.2" height="24.65" shape-rendering="crispEdges"/><rect fill="#242f38" x="1171.2" y="806.7" width="12.2" height="24.65" shape-rendering="crispEdges"/><rect fill="#242f38" x="1183.4" y="806.7" width="24.4" height="24.65" shape-rendering="crispEdges"/><rect fill="#242f38" x="1207.8" y="806.7" width="97.6" height="24.65" shape-rendering="crispEdges"/><rect fill="#242f38" x="1305.4" y="806.7" width="12.2" height="24.65" shape-rendering="crispEdges"/>
    <g class="terminal-3828423880-matrix">
    <text class="terminal-3828423880-r2" x="12.2" y="20" textLength="12.2" clip-path="url(#terminal-3828423880-line-0)">⭘</text><text class="terminal-3828423880-r2" x="451.4" y="20" textLength="134.2" clip-path="url(#terminal-3828423880-line-0)">ReviewPilot</text><text class="terminal-3828423880-r3" x="585.6" y="20" textLength="36.6" clip-path="url(#terminal-3828423880-line-0)">&#160;—&#160;</text><text class="terminal-3828423880-r3" x="622.2" y="20" textLength="146.4" clip-path="url(#terminal-3828423880-line-0)">PR&#160;评审&#160;·&#160;多轮追问</text><text class="terminal-3828423880-r1" x="1317.6" y="20" textLength="12.2" clip-path="url(#terminal-3828423880-line-0)">
</text><text class="terminal-3828423880-r2" x="61" y="44.4" textLength="207.4" clip-path="url(#terminal-3828423880-line-1)">PaymentError(...)</text><text class="terminal-3828423880-r1" x="1317.6" y="44.4" textLength="12.2" clip-path="url(#terminal-3828423880-line-1)">
</text><text class="terminal-3828423880-r1" x="1317.6" y="68.8" textLength="12.2" clip-path="url(#terminal-3828423880-line-2)">
</text><text class="terminal-3828423880-r1" x="1317.6" y="93.2" textLength="12.2" clip-path="url(#terminal-3828423880-line-3)">
</text><text class="terminal-3828423880-r5" x="36.6" y="117.6" textLength="73.2" clip-path="url(#terminal-3828423880-line-4)">我检查了什么</text><text class="terminal-3828423880-r1" x="1317.6" y="117.6" textLength="12.2" clip-path="url(#terminal-3828423880-line-4)">
</text><text class="terminal-3828423880-r1" x="1317.6" y="142" textLength="12.2" clip-path="url(#terminal-3828423880-line-5)">
</text><text class="terminal-3828423880-r4" x="36.6" y="166.4" textLength="24.4" clip-path="url(#terminal-3828423880-line-6)">•&#160;</text><text class="terminal-3828423880-r2" x="61" y="166.4" textLength="231.8" clip-path="url(#terminal-3828423880-line-6)">变更范围:2&#160;个文件,5&#160;个&#160;hunk</text><text class="terminal-3828423880-r1" x="1317.6" y="166.4" textLength="12.2" clip-path="url(#terminal-3828423880-line-6)">
</text><text class="terminal-3828423880-r4" x="36.6" y="190.8" textLength="24.4" clip-path="url(#terminal-3828423880-line-7)">•&#160;</text><text class="terminal-3828423880-r2" x="61" y="190.8" textLength="170.8" clip-path="url(#terminal-3828423880-line-7)">意图一致性:未发现声明外改动</text><text class="terminal-3828423880-r1" x="1317.6" y="190.8" textLength="12.2" clip-path="url(#terminal-3828423880-line-7)">
</text><text class="terminal-3828423880-r4" x="36.6" y="215.2" textLength="24.4" clip-path="url(#terminal-3828423880-line-8)">•&#160;</text><text class="terminal-3828423880-r2" x="61" y="215.2" textLength="109.8" clip-path="url(#terminal-3828423880-line-8)">接口影响:见风险项</text><text class="terminal-3828423880-r1" x="1317.6" y="215.2" textLength="12.2" clip-path="url(#terminal-3828423880-line-8)">
</text><text class="terminal-3828423880-r1" x="1317.6" y="239.6" textLength="12.2" clip-path="url(#terminal-3828423880-line-9)">
</text><text class="terminal-3828423880-r6" x="1281" y="264" textLength="24.4" clip-path="url(#terminal-3828423880-line-10)">▆▆</text><text class="terminal-3828423880-r1" x="1317.6" y="264" textLength="12.2" clip-path="url(#terminal-3828423880-line-10)">
</text><text class="terminal-3828423880-r5" x="36.6" y="288.4" textLength="24.4" clip-path="url(#terminal-3828423880-line-11)">限制</text><text class="terminal-3828423880-r1" x="1317.6" y="288.4" textLength="12.2" clip-path="url(#terminal-3828423880-line-11)">
</text><text class="terminal-3828423880-r1" x="1317.6" y="312.8" textLength="12.2" clip-path="url(#terminal-3828423880-line-12)">
</text><text class="terminal-3828423880-r4" x="36.6" y="337.2" textLength="24.4" clip-path="url(#terminal-3828423880-line-13)">•&#160;</text><text class="terminal-3828423880-r2" x="61" y="337.2" textLength="390.4" clip-path="url(#terminal-3828423880-line-13)">仅基于&#160;PR&#160;描述与&#160;diff;未运行测试;未读取完整仓库上下文</text><text class="terminal-3828423880-r1" x="1317.6" y="337.2" textLength="12.2" clip-path="url(#terminal-3828423880-line-13)">
</text><text class="terminal-3828423880-r1" x="1317.6" y="361.6" textLength="12.2" clip-path="url(#terminal-3828423880-line-14)">
</text><text class="terminal-3828423880-r1" x="1317.6" y="386" textLength="12.2" clip-path="url(#terminal-3828423880-line-15)">
</text><text class="terminal-3828423880-r8" x="36.6" y="410.4" textLength="12.2" clip-path="url(#terminal-3828423880-line-16)">你</text><text class="terminal-3828423880-r1" x="1317.6" y="410.4" textLength="12.2" clip-path="url(#terminal-3828423880-line-16)">
</text><text class="terminal-3828423880-r1" x="1317.6" y="434.8" textLength="12.2" clip-path="url(#terminal-3828423880-line-17)">
</text><text class="terminal-3828423880-r2" x="36.6" y="459.2" textLength="183" clip-path="url(#terminal-3828423880-line-18)">第1条风险为什么是&#160;high?</text><text class="terminal-3828423880-r1" x="1317.6" y="459.2" textLength="12.2" clip-path="url(#terminal-3828423880-line-18)">
</text><text class="terminal-3828423880-r1" x="1317.6" y="483.6" textLength="12.2" clip-path="url(#terminal-3828423880-line-19)">
</text><text class="terminal-3828423880-r1" x="1317.6" y="508" textLength="12.2" clip-path="url(#terminal-3828423880-line-20)">
</text><text class="terminal-3828423880-r8" x="36.6" y="532.4" textLength="134.2" clip-path="url(#terminal-3828423880-line-21)">ReviewPilot</text><text class="terminal-3828423880-r1" x="1317.6" y="532.4" textLength="12.2" clip-path="url(#terminal-3828423880-line-21)">
</text><text class="terminal-3828423880-r1" x="1317.6" y="556.8" textLength="12.2" clip-path="url(#terminal-3828423880-line-22)">
</text><text class="terminal-3828423880-r9" x="36.6" y="581.2" textLength="48.8" clip-path="url(#terminal-3828423880-line-23)">思考中…</text><text class="terminal-3828423880-r1" x="1317.6" y="581.2" textLength="12.2" clip-path="url(#terminal-3828423880-line-23)">
</text><text class="terminal-3828423880-r1" x="1317.6" y="605.6" textLength="12.2" clip-path="url(#terminal-3828423880-line-24)">
</text><text class="terminal-3828423880-r1" x="1317.6" y="630" textLength="12.2" clip-path="url(#terminal-3828423880-line-25)">
</text><text class="terminal-3828423880-r8" x="36.6" y="654.4" textLength="134.2" clip-path="url(#terminal-3828423880-line-26)">ReviewPilot</text><text class="terminal-3828423880-r1" x="1317.6" y="654.4" textLength="12.2" clip-path="url(#terminal-3828423880-line-26)">
</text><text class="terminal-3828423880-r1" x="1317.6" y="678.8" textLength="12.2" clip-path="url(#terminal-3828423880-line-27)">
</text><text class="terminal-3828423880-r2" x="36.6" y="703.2" textLength="36.6" clip-path="url(#terminal-3828423880-line-28)">因为&#160;</text><text class="terminal-3828423880-r10" x="97.6" y="703.2" textLength="134.2" clip-path="url(#terminal-3828423880-line-28)">order.py:42</text><text class="terminal-3828423880-r2" x="231.8" y="703.2" textLength="158.6" clip-path="url(#terminal-3828423880-line-28)">&#160;新增了&#160;raise,而&#160;</text><text class="terminal-3828423880-r10" x="439.2" y="703.2" textLength="85.4" clip-path="url(#terminal-3828423880-line-28)">a.py:10</text><text class="terminal-3828423880-r2" x="524.6" y="703.2" textLength="36.6" clip-path="url(#terminal-3828423880-line-28)">&#160;/&#160;</text><text class="terminal-3828423880-r10" x="561.2" y="703.2" textLength="73.2" clip-path="url(#terminal-3828423880-line-28)">b.py:7</text><text class="terminal-3828423880-r2" x="634.4" y="703.2" textLength="36.6" clip-path="url(#terminal-3828423880-line-28)">&#160;/&#160;</text><text class="terminal-3828423880-r10" x="671" y="703.2" textLength="73.2" clip-path="url(#terminal-3828423880-line-28)">c.py:3</text><text class="terminal-3828423880-r1" x="1317.6" y="703.2" textLength="12.2" clip-path="url(#terminal-3828423880-line-28)">
</text><text class="terminal-3828423880-r2" x="36.6" y="727.6" textLength="268.4" clip-path="url(#terminal-3828423880-line-29)">三个调用方仍按旧返回值处理,会漏掉异常分支。</text><text class="terminal-3828423880-r1" x="1317.6" y="727.6" textLength="12.2" clip-path="url(#terminal-3828423880-line-29)">
</text><text class="terminal-3828423880-r11" x="1281" y="752" textLength="24.4" clip-path="url(#terminal-3828423880-line-30)">▆▆</text><text class="terminal-3828423880-r1" x="1317.6" y="752" textLength="12.2" clip-path="url(#terminal-3828423880-line-30)">
</text><text class="terminal-3828423880-r7" x="0" y="776.4" textLength="12.2" clip-path="url(#terminal-3828423880-line-31)">▊</text><text class="terminal-3828423880-r12" x="12.2" y="776.4" textLength="1293.2" clip-path="url(#terminal-3828423880-line-31)">▔▔▔▔▔▔▔▔▔▔▔▔▔▔▔▔▔▔▔▔▔▔▔▔▔▔▔▔▔▔▔▔▔▔▔▔▔▔▔▔▔▔▔▔▔▔▔▔▔▔▔▔▔▔▔▔▔▔▔▔▔▔▔▔▔▔▔▔▔▔▔▔▔▔▔▔▔▔▔▔▔▔▔▔▔▔▔▔▔▔▔▔▔▔▔▔▔▔▔▔▔▔▔▔▔▔</text><text class="terminal-3828423880-r12" x="1305.4" y="776.4" textLength="12.2" clip-path="url(#terminal-3828423880-line-31)">▎</text><text class="terminal-3828423880-r1" x="1317.6" y="776.4" textLength="12.2" clip-path="url(#terminal-3828423880-line-31)">
</text><text class="terminal-3828423880-r7" x="0" y="800.8" textLength="12.2" clip-path="url(#terminal-3828423880-line-32)">▊</text><text class="terminal-3828423880-r7" x="36.6" y="800.8" textLength="12.2" clip-path="url(#terminal-3828423880-line-32)">追</text><text class="terminal-3828423880-r13" x="61" y="800.8" textLength="183" clip-path="url(#terminal-3828423880-line-32)">问&#160;/&#160;反驳…(Esc&#160;退出)</text><text class="terminal-3828423880-r12" x="1305.4" y="800.8" textLength="12.2" clip-path="url(#terminal-3828423880-line-32)">▎</text><text class="terminal-3828423880-r1" x="1317.6" y="800.8" textLength="12.2" clip-path="url(#terminal-3828423880-line-32)">
</text><text class="terminal-3828423880-r14" x="0" y="825.2" textLength="61" clip-path="url(#terminal-3828423880-line-33)">&#160;esc&#160;</text><text class="terminal-3828423880-r2" x="61" y="825.2" textLength="36.6" clip-path="url(#terminal-3828423880-line-33)">退出&#160;</text><text class="terminal-3828423880-r15" x="1171.2" y="825.2" textLength="12.2" clip-path="url(#terminal-3828423880-line-33)">▏</text><text class="terminal-3828423880-r14" x="1183.4" y="825.2" textLength="24.4" clip-path="url(#terminal-3828423880-line-33)">^p</text><text class="terminal-3828423880-r2" x="1207.8" y="825.2" textLength="97.6" clip-path="url(#terminal-3828423880-line-33)">&#160;palette</text>
    </g>
    </g>
</svg>
